<svg xmlns="http://www.w3.org/2000/svg" xmlns:xlink="http://www.w3.org/1999/xlink" version="1.1" id="Layer_1" x="0px" y="0px" style="enable-background:new 0 0 755.12 872.2;" xml:space="preserve" viewBox="141.81 146.44 413.43 572.54">
<style type="text/css">
	.st0{fill:#F9286B;stroke:#F9286B;stroke-miterlimit:10;}
	.st1{fill:#F9286B;stroke:#4ab3ea;stroke-miterlimit:10;}
	.st2{fill:#4ab3ea;}
	.st3{stroke:#000000;stroke-miterlimit:10;}
	.st4{fill:#381293;stroke:#F9286B;stroke-width:60;stroke-miterlimit:10;}
	.st5{fill:none;stroke:#F9286B;stroke-width:60;stroke-miterlimit:10;}
	.st6{fill:url(#SVGID_1_);stroke:#FA2857;stroke-width:60;stroke-miterlimit:10;}
	.st7{fill:none;stroke:#46BD99;stroke-width:3;stroke-miterlimit:10;}
	.st8{fill:#F9286B;stroke:#46BD99;stroke-miterlimit:10;}
	.st9{fill:none;stroke:#000000;stroke-width:7;stroke-miterlimit:10;}
	.st10{fill:#F9286B;stroke:#000000;stroke-width:7;stroke-miterlimit:10;}
	.st11{fill:#FA2857;stroke:#000000;stroke-width:7;stroke-miterlimit:10;}
	.st12{fill:#FA283E;}
	.st13{display:none;fill:none;stroke:#F9286B;stroke-width:6;stroke-linejoin:round;stroke-miterlimit:10;}
	.st14{fill:none;stroke:#000000;stroke-width:6;stroke-linejoin:round;stroke-miterlimit:10;}
	.st15{fill:#F5786D;stroke:#381293;stroke-width:25;stroke-miterlimit:10;}
	.st16{fill:#F89E62;stroke:#381293;stroke-width:25;stroke-miterlimit:10;}
	.st17{fill:#DE685D;stroke:#381293;stroke-width:25;stroke-miterlimit:10;}
	.st18{fill:#FD8279;stroke:#381293;stroke-width:25;stroke-miterlimit:10;}
	.st19{fill:#FD8D44;stroke:#381293;stroke-width:25;stroke-miterlimit:10;}
	.st20{fill:#F6C76D;stroke:#381293;stroke-width:25;stroke-miterlimit:10;}
	.st21{fill:none;stroke:#F9286B;stroke-width:5;stroke-miterlimit:10;}
	.st22{fill:none;stroke:#000000;stroke-width:5;stroke-miterlimit:10;}
	.st23{fill:#4ab3ea;stroke:#4ab3ea;stroke-miterlimit:10;}
	.st24{fill:none;stroke:#381293;stroke-width:25;stroke-miterlimit:10;}
	.st25{fill:#71CCD8;stroke:#381293;stroke-width:25;stroke-miterlimit:10;}
	.st26{fill:#64C1D1;stroke:#381293;stroke-width:25;stroke-miterlimit:10;}
	.st27{fill:#161514;}
	.st28{fill:none;stroke:#000000;stroke-width:3;stroke-miterlimit:10;}
	.st29{fill:none;stroke:#000000;stroke-width:5;stroke-linecap:round;stroke-miterlimit:10;stroke-dasharray:0,0,0,0,0,0;}
	.st30{fill:none;stroke:#000000;stroke-width:4;stroke-linecap:round;stroke-miterlimit:10;stroke-dasharray:0,0,0,0,0,0;}
	.st31{fill:none;stroke:#000000;stroke-width:3;stroke-linecap:round;stroke-miterlimit:10;stroke-dasharray:0,0,0,0,0,0;}
	.st32{fill:none;stroke:#4ab3ea;stroke-width:4;stroke-miterlimit:10;}
	.st33{filter:url(#Adobe_OpacityMaskFilter);}
	.st34{mask:url(#qrmask_1_);fill:#F8F8F8;}
	.st35{fill:#F8F8F8;}
	.st36{filter:url(#Adobe_OpacityMaskFilter_1_);}
	.st37{mask:url(#qrmask_2_);fill:#F8F8F8;}
</style>
<path class="st2" d="M334.28,215.1c6.46,45.96,1.94,70.03,1.45,74.18c-1.57,13.28-15.46,48,9.1,52.63c0,0,27.3,10.48,20.63-31.2  c0,0-5.58-29.02-2.58-38.42c2.49-7.79,3.44-4.02,15.65,17.06c0,0,0,0,0,0c0.01,0.03,19.34,66.07,43.79,53.96  c14.68-7.27,5.12-44.26,5.12-59.26c0-24.65,4.67-61.77,27.85-92.06c0,0,0,0,0,0c0.01-0.02,18.71-18.09,11.01-33.7  c-1.06-2.14-2.58-3.95-4.32-5.48c-5.8-5.11-21.17-14.81-35.94,8.81c0,0,0,0,0,0c0,0-34.95,52.9-25.02,99.77  c0,0,2.83,14.8-10.38-27.93c0,0,0,0,0,0c-0.01-0.01-18.88-48.57-43.7-48.57c-0.44,0-2.43,0-2.86,0.08  c-2.04,0.4-9.22,0.38-11.42,8.12c-0.6,2.11-0.64,4.37-0.34,6.55L334.28,215.1z"/>
<g>
	<g>
		<path class="st2" d="M535.7,332.51c-0.08-0.48-0.14-0.96-0.17-1.44c-1.37-19.23-4.5-34.98-5.33-39.16    c-8.91-44.65-28.39-50.19-28.39-50.19c-34.67-10.73-47.96,26.78-48.37,28.12c0,0-15.49,39.36-17.15,66.61    c-0.13,2.13,0.9,4.49,2.65,5.78c7.68,5.66,20.45,2.74,25.82,1.12c2.59-0.78,4.53-2.87,5.09-5.45c0.95-4.35,1.12-10.67,1.42-14.31    c0.61-7.56,7.01-13.45,14.82-13.73c11.01,0,15.79,6.24,16.01,14.58c0.51,20.05,10.69,21.45,13.9,21.39    c0.79-0.01,1.57,0.04,2.36,0.15C537.27,348.72,536.19,335.54,535.7,332.51z M505.27,290.27c-0.05,0.82-0.74,1.46-1.59,1.44    l-27.83-0.67c-1.12-0.03-2-0.95-1.93-2.03c0.4-5.98,3.61-23.06,23.72-17.41c0.21,0.06,0.01,0.25,0.2,0.35    C500.5,273.39,505.86,280.63,505.27,290.27z"/>
	</g>
</g>
<g>
	<g>
		<path class="st2" d="M322.32,330.56c-0.08-0.44-0.16-0.87-0.2-1.31c-1.84-17.6-5.15-31.96-6.02-35.77    c-9.4-40.7-27.01-45.17-27.01-45.17c-31.36-8.77-42.06,26.07-42.38,27.31c0,0-12.6,36.61-13.21,61.66    c-0.05,1.96,0.95,4.1,2.56,5.22c7.05,4.96,18.39,1.87,23.14,0.22c2.3-0.8,3.96-2.78,4.38-5.16c0.71-4.02,0.66-9.82,0.81-13.18    c0.3-6.96,5.84-12.57,12.82-13.07l0,0c9.85-0.34,14.33,5.24,14.79,12.88c1.1,18.39,10.25,19.35,13.12,19.19    c0.71-0.04,1.41-0.01,2.11,0.07C324.25,345.39,322.86,333.32,322.32,330.56z M292.37,294.12l-24.92,0.26    c-1,0.01-1.82-0.81-1.79-1.81c0.17-5.5,2.49-21.27,20.66-16.71c0.19,0.05,0.01,0.23,0.19,0.31c2.43,1.23,7.46,7.71,7.24,16.57    C293.72,293.5,293.12,294.11,292.37,294.12z"/>
	</g>
</g>
<path class="st2" d="M235.38,586.48c2.99,7.96,23.93,19.56,35.37-0.91c0.37-0.67,0.69-1.37,0.95-2.09  c1.38-3.84,4.47-15.41-4.24-24.46c-0.39-0.41-0.77-0.81-1.12-1.26c-3.27-4.17-28.36-32.57-73.56-9.25  c-0.36,0.18-0.73,0.33-1.09,0.51c-5.55,2.86-47.59,26.29-49.58,79.91c0,0-8.73,92.67,67.75,84.95c0,0,71.23-9.94,66.45-59.8  c-0.33-3.45-1.97-6.66-4.57-9.07c-6.13-5.68-19.14-12.64-36.87,5.52c-0.37,0.38-0.71,0.77-1.03,1.18  c-2.4,3.05-14.01,17.29-23.05,18.58c0,0-43.56,11.12-30.88-49.12c2.78-13.22,8.58-25.75,17.33-36.34  c6.92-8.38,15.79-15.76,24.45-13.45C234.23,574.74,233.62,581.78,235.38,586.48z"/>
<path class="st2" d="M290.56,654.59c-1.06,29.04-22.1,72.34,46.9,59.63c0,0,17.14-2.09,29.24-0.75c0,0,41.78,10.36,43.81-15.24  c0,0,6.27-22.65-21.29-22.65l-62.27,0.45c0,0-9.59-2.02-3.36-40.52c0,0,3.16-35.73,3.7-49.08c0.48-11.88,1.57-41.69-21.61-41.69  c-22.68,0-20.23,15.53-20.23,15.53S291.63,625.55,290.56,654.59z"/>
<path class="st2" d="M342.58,560.72c-2.05,7.14-7.98,35.02,1.26,68.47c0,0,10.87,37.71,52.96,35.47  c20.54-1.09,36.03-17.97,41.51-37.79c5.69-20.6,17.95-86.75-23.33-76.44c-19.27,4.82-7.63,30.06-5.76,41.02  c5.86,34.32-39.18,46.31-31.74,2.99c7-40.75-5.75-44.08-5.75-44.08C350.78,545.07,345.42,553.8,342.58,560.72z"/>
<path class="st2" d="M166.04,377.94c0,0,1.74,46.62,1.74,64.07c0,18.32-3.26,44.79-7.59,59.03c-2.85,9.38-17.37,42.41,34.39,18.86  c10.89-4.95,40.86-12.48,18.94-43.95c0,0-16.06-30.68-11.32-44.25c0,0,18.27,20.74,30.89,20.24c12.41-0.49,22.87-13.15,25.71-19  c0.23-0.48,0.6-0.9,0.9-1.37c0,0,4.45-7.66,2.79,20.15c-0.47,7.82,0.48,14.58-6.47,30.68c0,0-18.31,23.64,13.85,29.85  c0,0,43.07,14.28,51.73-11.38c8.67-25.66-4.52-22.63-10.85-41.04c0,0-13.48-33.37-12.35-56.25c0,0-0.3-69.88-26.5-40.89  c-7.34,8.12-17.73,25.55-23.81,36.71c-2.92,5.36-15.32,30.87-28.57,2.97c0,0-22.23-46.96-46.96-42.92  C166.16,360.5,166.04,377.94,166.04,377.94z"/>
<path class="st2" d="M339.29,465.47c3.06,48.7-5.04,50.94,20,49.6c18.3-0.98,25.8,6.79,18.96-48.73c-0.13-1.02-0.21-2.06-0.25-3.09  l-0.9-26.92c0-9.53-0.53-16.65-10.69-16.65C339.88,420.52,336.02,413.29,339.29,465.47z"/>
<g>
	<g>
		<path class="st2" d="M532.8,454.55c-9.73-17.75-23.65-44.83-32.39-63.13c-8.15-17.04-13.95-26.83-28.88-26.77    c-17.4,0.07-26.72,23.94-32.25,33.8c-0.58,1.03-20.22,43.91-20.22,43.91s-11.96,24.96-16.18,33.58    c-4.45,9.08-22.93,28.42,2.77,40.35c20.49,9.52,32.25,4.19,38.58-7.91c6.34-12.1,11.88-26.06,11.88-26.06l38.53-0.66    c-0.37,0.13-1.05,2.01,9.85,22.8c2.98,5.69,10.61,17.29,21.63,14.49C580.72,505.12,542.68,472.56,532.8,454.55z M479,452.71    c-3.8-0.8-10.77,0.14-10.77,0.14c-12.54,2.6-8.19-6.41-8.19-6.41l5.46-15.1c4.66-16.42,11.68-13.28,14.56-4.17    c0.64,2.02,5.35,13.71,5.35,13.71c0.11,0.36,0.24,0.73,0.38,1.08C489.65,451.24,488.55,454.71,479,452.71z"/>
	</g>
</g>
<path class="st2" d="M342.96,392.51c0,0-12.01,29.2,3.97,17.88l9.5-7.6c0,0,6.1,5.25,9.39,7.38c0,0,15.86,10.87,10.57-5.03  c0,0-1.88-7.53-5.46-14.3c0,0,13.39-8.74,15.54-10.7c0,0,12.1-10.3-8-6.21l-10.67,2.52c0,0-2.3-7.61-3.1-10.14  c-0.87-2.74-4.88-17.31-11.85,4.18l-2.8,8.14l-10.52,0.03c-0.96,0.03-1.91-0.04-2.87-0.11c-3.46-0.24-12.76-0.33,1.08,9.36  L342.96,392.51z"/>
<g>
	<g>
		<path class="st2" d="M261.07,162.79c0,0-23.71-19.24-58.86-8.35c0,0-17.28,6.12-19.99,6.8l-9.04,2.86c0,0-43.55-6.38-27.44,34.43    c0,0,9.06,28.91,10.11,37.83c0,0,1.83,24.2,3.1,34.99c0,0,0.93,26.9-1.2,37.79c0,0-15.33,40.82,13.55,34.68    c0,0,20.29-3.73,26.04-4.44c0,0,12.43-1.74,16.92-14.55c0,0,1.56-7.17-6.62-27.88c-0.44-1.1-0.77-2.25-1.03-3.41    c-1.25-5.56-4.65-22.13-1.46-24.93c0,0,52.24-4.45,71.5-38.09C276.64,230.53,297.49,186.89,261.07,162.79z M228.45,225.98    c-18.62,11.54-22.13,2.19-22.13,2.19l-9.32-37.93l3.33-3.74c0,0,7.07-6.98,28.36-0.83C249.98,191.83,247.08,214.43,228.45,225.98z    "/>
	</g>
</g>
<g>
	<g>
		<path class="st2" d="M521.05,619.8c12.76-2.46,19.26-13.13,21.2-25.1c0,0,11.87-55.12-57.29-45.52l-7.27,1.61    c0,0-25.66-7.36-24.81,6.11c0,0,3.41,85.11-3.1,131.88c-1.6,11.48-7.8,36.24,32.02,25.56c1.22-0.71,69.82,28.05,73.35-49.58    C556.67,631.23,539.39,622.43,521.05,619.8z M486.21,582.76c0.01-1.48,1.14-2.74,2.68-2.97l4.16-0.62c4-0.6,8.15-0.24,11.86,1.33    c11.53,4.89,5.88,15.87,5.88,15.87c-3.42,6.91-15.83,7.34-21.65,7.15c-1.71-0.06-3.05-1.41-3.04-3.05L486.21,582.76z     M503.27,618.53c-1.54-0.05-3.04-0.11-4.48-0.17c-0.67-0.2-0.54-1.44,0.12-1.2C500.41,617.7,501.86,618.14,503.27,618.53z     M519.99,665.81c-4.55,16.3-21.32,13.59-29.66,13.59c-0.8,0-4.49,0.82-4.23-4.29v-29.55c0.11-2.23,1.85-3.09,1.85-3.09    s2.22-2.16,20.21,1.15C523.96,646.53,519.99,665.81,519.99,665.81z"/>
	</g>
</g>
<path class="st13" d="M110.97,743.88V136.52c0-7.95,6.45-14.4,14.4-14.4h454.5c7.95,0,14.4,6.45,14.4,14.4v607.36  c0,7.95-6.45,14.4-14.4,14.4h-454.5C117.41,758.28,110.97,751.83,110.97,743.88z"/>
</svg>